<?xml version="1.0" encoding="UTF-8" standalone="no" ?>
<!DOCTYPE svg PUBLIC "-//W3C//DTD SVG 1.1//EN" "http://www.w3.org/Graphics/SVG/1.1/DTD/svg11.dtd">
<svg xmlns="http://www.w3.org/2000/svg" xmlns:xlink="http://www.w3.org/1999/xlink" version="1.1" width="300" height="300" viewBox="0 0 300 300" xml:space="preserve">
<desc>Created with Fabric.js 4.6.0</desc>
<defs>
</defs>
<g transform="matrix(2.76 0 0 2.76 150 155.44)" id="MPMn7x00OGn2V8V42vSQp"  >
<path style="stroke: rgb(49,168,247); stroke-width: 1; stroke-dasharray: none; stroke-linecap: butt; stroke-dashoffset: 0; stroke-linejoin: miter; stroke-miterlimit: 4; fill: rgb(53,237,53); fill-rule: nonzero; opacity: 1;" vector-effect="non-scaling-stroke"  transform=" translate(0, 0)" d="M 24.002 -1.3075 L 1.3079999999999998 -1.3075 L 1.3079999999999998 -14.9055 C 8.602 -15.0985 14.766 -16.8795 19.564 -18.9725 C 22.337 -13.5625 23.823 -7.657500000000001 24.002 -1.307500000000001 z M 1.308 -37.8395 L 1.308 -17.5225 C 7.9639999999999995 -17.706500000000002 13.663 -19.2785 18.288 -21.2785 C 16.526 -24.2305 14.363 -27.0255 11.798 -29.6545 C 7.724 -33.829499999999996 3.6080000000000005 -36.5115 1.3079999999999998 -37.8395 z M -1.308 -1.3075 L -1.308 -14.9055 C -8.602 -15.0985 -14.766 -16.8795 -19.564 -18.9725 C -22.337 -13.5625 -23.823 -7.657500000000001 -24.002 -1.3064999999999998 L -1.3079999999999998 -1.3064999999999998 z M -11.798 -29.6545 C -14.365 -27.0245 -16.53 -24.2275 -18.292 -21.2725 C -13.805000000000001 -19.343500000000002 -8.071000000000002 -17.712500000000002 -1.3079999999999998 -17.523500000000002 L -1.3079999999999998 -37.8395 C -3.6079999999999997 -36.5115 -7.724 -33.8295 -11.798 -29.6545 z M 26.62 1.3085 C 26.452 7.484500000000001 25.088 13.3515 22.558 18.763499999999997 C 22.353 19.2035 22.137 19.639499999999998 21.916 20.073499999999996 C 23.132 20.682499999999997 24.237000000000002 21.297499999999996 25.225 21.892499999999995 C 27.445 23.229499999999994 29.266000000000002 24.562499999999993 30.676000000000002 25.706499999999995 C 36.248000000000005 19.063499999999994 39.702 10.585499999999994 40 1.3094999999999963 L 26.619999999999997 1.3094999999999963 z M -26.62 -1.3075 C -26.451 -7.4835 -25.087 -13.3505 -22.558 -18.7625 C -22.352 -19.2025 -22.137 -19.6385 -21.916 -20.072499999999998 C -23.132 -20.6815 -24.237000000000002 -21.296499999999998 -25.225 -21.891499999999997 C -27.445 -23.228499999999997 -29.266000000000002 -24.561499999999995 -30.676000000000002 -25.705499999999997 C -36.248000000000005 -19.061499999999995 -39.702 -10.583499999999997 -40 -1.3074999999999974 z M -1.308 1.3085 L -24.002 1.3085 C -23.823 7.6585 -22.337 13.563500000000001 -19.564 18.973499999999998 C -14.766 16.880499999999998 -8.601 15.099499999999997 -1.3079999999999998 14.906499999999998 z M -21.916 20.0735 C -22.137 19.639499999999998 -22.353 19.2035 -22.558 18.7635 C -25.088 13.3505 -26.451999999999998 7.484500000000001 -26.62 1.3085000000000022 L -40 1.3085000000000022 C -39.702 10.584500000000002 -36.248 19.062500000000004 -30.676000000000002 25.7055 C -29.266000000000002 24.561500000000002 -27.445 23.2285 -25.225 21.8915 C -24.237000000000002 21.2975 -23.132 20.6815 -21.916 20.0735 z M -13.6 31.5545 C -16.375999999999998 28.7215 -18.737 25.6465 -20.653 22.3805 C -24.195 24.151500000000002 -26.973 26.099500000000003 -28.921999999999997 27.6655 C -22.272999999999996 34.6145 -13.144999999999998 39.170500000000004 -2.958999999999996 39.914500000000004 C -5.439999999999996 38.456500000000005 -9.503999999999996 35.7355 -13.599999999999996 31.554500000000004 z M -23.788 -24.0795 C -22.854 -23.5205 -21.81 -22.9405 -20.66 -22.3685 C -18.743 -25.6385 -16.379 -28.7165 -13.600000000000001 -31.5535 C -9.504000000000001 -35.7335 -5.440000000000001 -38.4555 -2.9590000000000014 -39.9135 C -13.147000000000002 -39.1695 -22.277 -34.6115 -28.926000000000002 -27.6595 C -27.592000000000002 -26.5835 -25.871000000000002 -25.328500000000002 -23.788000000000004 -24.079500000000003 z M 23.788 24.0805 C 22.854 23.5215 21.81 22.9415 20.66 22.369500000000002 C 18.743 25.6395 16.379 28.7175 13.600000000000001 31.554500000000004 C 9.504000000000001 35.734500000000004 5.440000000000001 38.456500000000005 2.9590000000000014 39.914500000000004 C 13.148000000000001 39.169500000000006 22.278 34.61150000000001 28.927 27.660500000000006 C 27.592 26.584500000000006 25.871 25.329500000000007 23.788 24.080500000000008 z M 13.6 -31.5535 C 16.375999999999998 -28.7205 18.737 -25.6455 20.653 -22.3795 C 24.195 -24.1505 26.973 -26.0985 28.921 -27.6645 C 22.273 -34.6135 13.145 -39.1695 2.9589999999999996 -39.914500000000004 C 5.4399999999999995 -38.4555 9.504 -35.73350000000001 13.6 -31.553500000000003 z M 1.308 1.3085 L 1.308 14.906500000000001 C 8.602 15.0995 14.766 16.8805 19.564 18.9735 C 22.337 13.563500000000001 23.823 7.658500000000002 24.002 1.3085000000000022 z M 11.798 29.6555 C 14.365 27.0255 16.53 24.2285 18.292 21.2735 C 13.805000000000001 19.3445 8.071000000000002 17.7135 1.3079999999999998 17.5245 L 1.3079999999999998 37.8405 C 3.6079999999999997 36.512499999999996 7.724 33.8305 11.798 29.655499999999996 z M 25.224 -21.8915 C 24.236 -21.2965 23.131 -20.6815 21.915 -20.0725 C 22.136 -19.6385 22.352 -19.2025 22.557 -18.762500000000003 C 25.087 -13.349500000000003 26.451 -7.483500000000003 26.619 -1.3075000000000045 L 40 -1.3075000000000045 C 39.702 -10.583500000000004 36.248 -19.061500000000006 30.676000000000002 -25.704500000000003 C 29.266000000000002 -24.561500000000002 27.445 -23.228500000000004 25.224000000000004 -21.891500000000004 z M -1.308 37.8405 L -1.308 17.5235 C -7.9639999999999995 17.7075 -13.663 19.2795 -18.288 21.2795 C -16.526 24.231499999999997 -14.363 27.0265 -11.798 29.655499999999996 C -7.724 33.830499999999994 -3.6080000000000005 36.512499999999996 -1.3079999999999998 37.8405 z" stroke-linecap="round" />
</g>
</svg>